<svg width="793" height="487" fill="none" xmlns="http://www.w3.org/2000/svg"><path d="M123.625 59.633V45.962h-2.491V43.88h2.491v-1.616c0-1.689.451-2.994 1.354-3.916.903-.922 2.18-1.383 3.831-1.383.622 0 1.238.082 1.85.247l-.146 2.184a7.735 7.735 0 0 0-1.456-.131c-.874 0-1.549.257-2.025.772-.476.504-.714 1.232-.714 2.183v1.66h3.365v2.082h-3.365v13.67h-2.694zM135.219 43.88l.087 1.98c1.205-1.514 2.778-2.271 4.72-2.271 3.33 0 5.01 1.878 5.039 5.634v10.41h-2.694V49.209c-.01-1.136-.272-1.976-.787-2.52-.505-.543-1.296-.814-2.374-.814-.874 0-1.641.233-2.301.698a4.74 4.74 0 0 0-1.544 1.835v11.225h-2.695V43.88h2.549z" fill="#000"/><path fill-rule="evenodd" clip-rule="evenodd" d="M148.474 51.625c0-2.416.573-4.358 1.719-5.823 1.145-1.475 2.646-2.213 4.5-2.213 1.845 0 3.307.63 4.385 1.892v-8.21h2.694v22.362h-2.476l-.131-1.69c-1.078 1.32-2.578 1.98-4.501 1.98-1.825 0-3.316-.747-4.471-2.241-1.146-1.495-1.719-3.446-1.719-5.853v-.204zm2.695.306c0 1.786.369 3.184 1.107 4.193.738 1.01 1.757 1.514 3.058 1.514 1.709 0 2.957-.767 3.744-2.3v-7.236c-.806-1.485-2.044-2.227-3.715-2.227-1.32 0-2.349.51-3.087 1.528-.738 1.02-1.107 2.529-1.107 4.528zM175.697 59.633c-.155-.31-.281-.864-.378-1.66-1.253 1.3-2.748 1.95-4.487 1.95-1.553 0-2.83-.436-3.83-1.31-.991-.883-1.486-1.999-1.486-3.348 0-1.64.621-2.912 1.864-3.814 1.253-.913 3.011-1.369 5.273-1.369h2.622v-1.237c0-.942-.282-1.69-.845-2.242-.563-.563-1.393-.845-2.491-.845-.961 0-1.767.243-2.418.728-.65.485-.975 1.073-.975 1.762h-2.71c0-.786.277-1.543.831-2.271.563-.738 1.32-1.32 2.272-1.747.961-.428 2.015-.641 3.161-.641 1.815 0 3.238.456 4.267 1.368 1.03.903 1.564 2.15 1.603 3.742v7.25c0 1.447.184 2.597.553 3.45v.234h-2.826zm-4.471-2.053c.844 0 1.646-.218 2.403-.655.757-.437 1.306-1.005 1.646-1.704V51.99h-2.112c-3.302 0-4.952.966-4.952 2.898 0 .844.281 1.504.844 1.98.564.475 1.287.713 2.171.713z" fill="#000"/><path d="M184.976 43.88v17.572c0 3.029-1.374 4.543-4.122 4.543a5 5 0 0 1-1.646-.262v-2.155c.31.078.718.116 1.223.116.602 0 1.059-.165 1.369-.495.321-.32.481-.883.481-1.688V43.88h2.695zM182.004 39.702c0-.427.131-.791.394-1.092.271-.31.665-.466 1.179-.466.525 0 .923.15 1.195.451.272.301.408.67.408 1.107 0 .437-.136.8-.408 1.092-.272.29-.67.436-1.195.436-.524 0-.917-.145-1.179-.436-.263-.292-.394-.655-.394-1.092zM194.531 55.978l3.904-12.098h2.752l-5.651 15.753h-2.054l-5.71-15.753h2.753l4.006 12.098zM206.329 43.88l.088 1.98c1.204-1.514 2.777-2.271 4.719-2.271 3.331 0 5.01 1.878 5.04 5.634v10.41h-2.695V49.209c-.01-1.136-.272-1.976-.787-2.52-.505-.543-1.296-.814-2.374-.814-.874 0-1.641.233-2.301.698a4.74 4.74 0 0 0-1.544 1.835v11.225h-2.695V43.88h2.549z" fill="#000"/><path fill-rule="evenodd" clip-rule="evenodd" d="M219.584 51.625c0-2.416.573-4.358 1.719-5.823 1.146-1.475 2.646-2.213 4.501-2.213 1.845 0 3.306.63 4.384 1.892v-8.21h2.695v22.362h-2.477l-.131-1.69c-1.078 1.32-2.578 1.98-4.501 1.98-1.825 0-3.316-.747-4.471-2.241-1.146-1.495-1.719-3.446-1.719-5.853v-.204zm2.695.306c0 1.786.369 3.184 1.107 4.193.738 1.01 1.757 1.514 3.059 1.514 1.709 0 2.956-.767 3.743-2.3v-7.236c-.806-1.485-2.044-2.227-3.714-2.227-1.321 0-2.35.51-3.088 1.528-.738 1.02-1.107 2.529-1.107 4.528zM246.807 59.633c-.155-.31-.281-.864-.378-1.66-1.253 1.3-2.748 1.95-4.487 1.95-1.553 0-2.83-.436-3.83-1.31-.991-.883-1.486-1.999-1.486-3.348 0-1.64.621-2.912 1.864-3.814 1.253-.913 3.011-1.369 5.273-1.369h2.622v-1.237c0-.942-.282-1.69-.845-2.242-.563-.563-1.393-.845-2.491-.845-.961 0-1.767.243-2.417.728-.651.485-.976 1.073-.976 1.762h-2.71c0-.786.277-1.543.831-2.271.563-.738 1.32-1.32 2.272-1.747.961-.428 2.015-.641 3.161-.641 1.816 0 3.238.456 4.267 1.368 1.03.903 1.564 2.15 1.603 3.742v7.25c0 1.447.184 2.597.553 3.45v.234h-2.826zm-4.471-2.053c.845 0 1.646-.218 2.403-.655.758-.437 1.306-1.005 1.646-1.704V51.99h-2.112c-3.302 0-4.952.966-4.952 2.898 0 .844.281 1.504.844 1.98.564.475 1.287.713 2.171.713z" fill="#000"/><path d="M255.853 43.88l.087 1.98c1.204-1.514 2.777-2.271 4.72-2.271 3.33 0 5.01 1.878 5.039 5.634v10.41h-2.694V49.209c-.01-1.136-.272-1.976-.787-2.52-.505-.543-1.296-.814-2.374-.814-.874 0-1.641.233-2.302.698a4.749 4.749 0 0 0-1.544 1.835v11.225h-2.694V43.88h2.549zM273.419 40.066v3.814h2.942v2.082h-2.942v9.769c0 .63.131 1.106.393 1.427.263.31.709.465 1.34.465.311 0 .738-.058 1.282-.174v2.184a7.815 7.815 0 0 1-2.068.29c-1.204 0-2.112-.363-2.724-1.091-.612-.728-.918-1.762-.918-3.101v-9.769h-2.869V43.88h2.869v-3.814h2.695zM561.564 59.924c2.03 0 3.569-.617 4.618-1.85l.058 1.559h2.564V43.88h-2.695v11.458c-.68 1.533-2.049 2.3-4.108 2.3-1.942 0-2.913-1.194-2.913-3.581V43.88h-2.695v10.25c.01 1.911.452 3.358 1.326 4.338.884.97 2.165 1.456 3.845 1.456zM581.257 53.766c.554.397.83.96.83 1.688 0 .69-.31 1.243-.932 1.66-.611.408-1.427.611-2.447.611-1.107 0-2-.262-2.68-.786-.67-.533-1.029-1.252-1.078-2.154h-2.694c0 .931.271 1.8.815 2.606.554.796 1.316 1.417 2.287 1.863.971.447 2.088.67 3.35.67 1.797 0 3.258-.422 4.385-1.267 1.126-.854 1.689-1.985 1.689-3.392 0-.844-.204-1.558-.612-2.14-.398-.592-1.014-1.097-1.849-1.514-.836-.418-1.928-.777-3.278-1.078-1.34-.3-2.267-.616-2.782-.946-.514-.33-.772-.82-.772-1.47 0-.69.277-1.247.83-1.675.554-.427 1.321-.64 2.302-.64.951 0 1.738.267 2.359.8.632.534.947 1.17.947 1.908h2.71c0-1.437-.559-2.616-1.676-3.538-1.107-.922-2.553-1.383-4.34-1.383-1.7 0-3.098.446-4.195 1.34-1.088.892-1.631 1.984-1.631 3.275 0 .776.189 1.446.568 2.01.388.562.98 1.047 1.777 1.455.806.408 1.888.757 3.248 1.048 1.369.291 2.325.64 2.869 1.049z" fill="#000"/><path fill-rule="evenodd" clip-rule="evenodd" d="M589.618 57.827c1.34 1.398 3.078 2.097 5.215 2.097 2.641 0 4.622-1.014 5.942-3.043l-1.646-1.281a6.073 6.073 0 0 1-1.733 1.543c-.66.388-1.466.582-2.418.582-1.34 0-2.447-.475-3.321-1.426-.864-.961-1.316-2.218-1.354-3.771h10.676v-1.121c0-2.514-.568-4.445-1.704-5.794-1.136-1.35-2.729-2.024-4.777-2.024-1.253 0-2.418.35-3.496 1.048-1.068.69-1.904 1.65-2.506 2.883-.592 1.223-.888 2.615-.888 4.178v.495c0 2.349.67 4.227 2.01 5.634zm2.141-10.831c.738-.796 1.651-1.194 2.739-1.194 1.126 0 2.019.378 2.68 1.135.66.748 1.029 1.806 1.107 3.174v.204h-7.895c.175-1.427.631-2.533 1.369-3.32z" fill="#000"/><path d="M610.403 46.195c.476 0 .918.034 1.326.102v-2.504c-.272-.136-.67-.204-1.195-.204-1.621 0-2.874.704-3.758 2.11l-.043-1.819h-2.622v15.753h2.695V48.452c.631-1.505 1.83-2.257 3.597-2.257zM627.489 59.633h2.709v-21.3h-.422l-7.72 2.897v2.446l5.433-1.994v17.95zM561.564 156.827c2.03 0 3.569-.616 4.618-1.849l.058 1.558h2.564v-15.753h-2.695v11.458c-.68 1.533-2.049 2.3-4.108 2.3-1.942 0-2.913-1.194-2.913-3.581v-10.177h-2.695v10.249c.01 1.913.452 3.359 1.326 4.339.884.971 2.165 1.456 3.845 1.456zM581.257 150.669c.554.397.83.96.83 1.688 0 .689-.31 1.243-.932 1.66-.611.408-1.427.612-2.447.612-1.107 0-2-.263-2.68-.787-.67-.533-1.029-1.252-1.078-2.154h-2.694c0 .931.271 1.8.815 2.606.554.796 1.316 1.417 2.287 1.863.971.447 2.088.67 3.35.67 1.797 0 3.258-.422 4.385-1.267 1.126-.854 1.689-1.985 1.689-3.392 0-.844-.204-1.558-.612-2.14-.398-.592-1.014-1.097-1.849-1.514-.836-.418-1.928-.777-3.278-1.078-1.34-.3-2.267-.616-2.782-.946-.514-.33-.772-.82-.772-1.47 0-.689.277-1.247.83-1.675.554-.427 1.321-.64 2.302-.64.951 0 1.738.267 2.359.801.632.533.947 1.169.947 1.907h2.71c0-1.437-.559-2.616-1.676-3.538-1.107-.922-2.553-1.383-4.34-1.383-1.7 0-3.098.446-4.195 1.339-1.088.893-1.631 1.985-1.631 3.276 0 .777.189 1.446.568 2.009.388.563.98 1.048 1.777 1.456.806.408 1.888.757 3.248 1.048 1.369.291 2.325.641 2.869 1.049z" fill="#000"/><path fill-rule="evenodd" clip-rule="evenodd" d="M589.618 154.73c1.34 1.398 3.078 2.097 5.215 2.097 2.641 0 4.622-1.014 5.942-3.043l-1.646-1.281a6.064 6.064 0 0 1-1.733 1.543c-.66.388-1.466.583-2.418.583-1.34 0-2.447-.476-3.321-1.427-.864-.961-1.316-2.218-1.354-3.771h10.676v-1.121c0-2.514-.568-4.445-1.704-5.794-1.136-1.349-2.729-2.024-4.777-2.024a6.303 6.303 0 0 0-3.496 1.048c-1.068.689-1.904 1.65-2.506 2.883-.592 1.223-.888 2.616-.888 4.178v.495c0 2.349.67 4.227 2.01 5.634zm2.141-10.831c.738-.796 1.651-1.194 2.739-1.194 1.126 0 2.019.378 2.68 1.135.66.748 1.029 1.806 1.107 3.174v.204h-7.895c.175-1.427.631-2.533 1.369-3.319z" fill="#000"/><path d="M610.403 143.098c.476 0 .918.034 1.326.102v-2.504c-.272-.136-.67-.204-1.195-.204-1.621 0-2.874.704-3.758 2.111l-.043-1.82h-2.622v15.753h2.695v-11.181c.631-1.505 1.83-2.257 3.597-2.257zM621.342 156.536h13.896v-2.199H624.59l5.681-6.158c2.661-2.883 3.991-5.367 3.991-7.454 0-1.718-.573-3.091-1.719-4.12-1.145-1.039-2.704-1.558-4.675-1.558-2.107 0-3.792.602-5.055 1.805-1.252 1.204-1.879 2.781-1.879 4.732h2.695c0-1.359.369-2.417 1.107-3.174.748-.767 1.792-1.15 3.132-1.15 1.116 0 2.01.354 2.68 1.063.67.708 1.005 1.616 1.005 2.722 0 .825-.209 1.626-.626 2.402-.408.767-1.156 1.767-2.244 2.999l-7.341 8.153v1.937z" fill="#000"/><path fill-rule="evenodd" clip-rule="evenodd" d="M567.954 245.737c0 2.398-.549 4.329-1.646 5.795-1.097 1.465-2.583 2.198-4.457 2.198-1.913 0-3.418-.607-4.516-1.82v7.585h-2.694v-21.809h2.461l.131 1.747c1.098-1.359 2.622-2.038 4.574-2.038 1.894 0 3.389.713 4.486 2.14 1.107 1.427 1.661 3.412 1.661 5.955v.247zm-2.695-.306c0-1.776-.379-3.178-1.136-4.207-.757-1.029-1.796-1.543-3.117-1.543-1.631 0-2.855.723-3.671 2.169v7.527c.806 1.436 2.04 2.155 3.7 2.155 1.292 0 2.316-.51 3.073-1.529.768-1.029 1.151-2.553 1.151-4.572zM570.678 245.417c0-1.543.301-2.931.903-4.164.611-1.233 1.456-2.184 2.534-2.853 1.088-.67 2.326-1.005 3.714-1.005 2.146 0 3.88.743 5.2 2.228 1.331 1.485 1.996 3.46 1.996 5.925v.189c0 1.534-.296 2.912-.889 4.135-.582 1.213-1.422 2.159-2.519 2.839-1.088.679-2.341 1.019-3.758 1.019-2.137 0-3.87-.743-5.2-2.228-1.321-1.485-1.981-3.45-1.981-5.896v-.189zm2.709.32c0 1.747.403 3.15 1.209 4.208.816 1.058 1.903 1.587 3.263 1.587 1.369 0 2.456-.534 3.262-1.602.806-1.077 1.209-2.582 1.209-4.513 0-1.728-.412-3.125-1.238-4.193-.816-1.077-1.903-1.616-3.263-1.616-1.33 0-2.403.529-3.219 1.587-.815 1.058-1.223 2.572-1.223 4.542z" fill="#000"/><path d="M597.581 249.26c0-.728-.277-1.29-.831-1.688-.543-.408-1.5-.757-2.869-1.049-1.36-.291-2.442-.64-3.248-1.048-.797-.408-1.389-.893-1.777-1.456-.379-.563-.568-1.232-.568-2.009 0-1.291.543-2.383 1.631-3.276 1.097-.893 2.496-1.339 4.195-1.339 1.787 0 3.234.461 4.341 1.383 1.116.922 1.675 2.101 1.675 3.538h-2.71c0-.738-.315-1.373-.946-1.907-.622-.534-1.408-.801-2.36-.801-.981 0-1.748.213-2.301.641-.554.427-.831.985-.831 1.674 0 .65.258 1.14.772 1.47.515.33 1.442.646 2.782.947 1.35.3 2.443.66 3.278 1.077.835.417 1.451.922 1.85 1.514.407.582.611 1.296.611 2.14 0 1.407-.563 2.538-1.689 3.392-1.127.845-2.588 1.267-4.385 1.267-1.262 0-2.379-.223-3.35-.67-.971-.446-1.733-1.067-2.287-1.863-.543-.806-.815-1.675-.815-2.606h2.694c.049.902.408 1.621 1.078 2.154.68.525 1.573.787 2.68.787 1.02 0 1.836-.204 2.447-.612.622-.417.933-.97.933-1.66zM607.442 233.872v3.814h2.942v2.082h-2.942v9.769c0 .631.131 1.106.393 1.427.262.31.709.466 1.34.466.311 0 .738-.059 1.282-.175v2.184a7.826 7.826 0 0 1-2.069.291c-1.204 0-2.112-.364-2.723-1.092-.612-.728-.918-1.762-.918-3.101v-9.769h-2.869v-2.082h2.869v-3.814h2.695zM629.523 253.439h-2.709v-17.951l-5.433 1.994v-2.445l7.72-2.898h.422v21.3zM126.8 255.259v-17.573h-2.695v17.631c0 .805-.16 1.368-.48 1.689-.311.33-.767.495-1.37.495-.504 0-.912-.039-1.223-.117v2.155a4.997 4.997 0 0 0 1.646.262c2.748 0 4.122-1.514 4.122-4.542zM124.222 232.416a1.606 1.606 0 0 0-.393 1.092c0 .437.131.801.393 1.092.262.291.655.437 1.18.437.524 0 .922-.146 1.194-.437.272-.291.408-.655.408-1.092 0-.437-.136-.806-.408-1.107-.272-.301-.67-.451-1.194-.451-.515 0-.908.155-1.18.466zM133.792 239.666l-.088-1.98h-2.549v15.753h2.695v-11.225a4.733 4.733 0 0 1 1.544-1.834c.66-.466 1.427-.699 2.301-.699 1.078 0 1.869.272 2.374.815.515.544.777 1.383.787 2.519v10.424h2.695v-10.41c-.029-3.756-1.709-5.634-5.04-5.634-1.942 0-3.515.757-4.719 2.271z" fill="#000"/><path fill-rule="evenodd" clip-rule="evenodd" d="M148.678 239.608c-1.146 1.466-1.719 3.407-1.719 5.823v.204c0 2.407.573 4.358 1.719 5.853 1.155 1.495 2.646 2.242 4.471 2.242 1.923 0 3.423-.66 4.501-1.98l.131 1.689h2.477v-22.362h-2.695v8.211c-1.078-1.262-2.539-1.893-4.384-1.893-1.855 0-3.355.738-4.501 2.213zm2.083 10.322c-.738-1.009-1.107-2.407-1.107-4.193 0-1.999.369-3.508 1.107-4.528.738-1.019 1.767-1.528 3.088-1.528 1.67 0 2.908.742 3.714 2.227v7.236c-.787 1.533-2.034 2.3-3.743 2.3-1.302 0-2.321-.504-3.059-1.514z" fill="#000"/><path d="M164.686 253.439h2.694v-15.753h-2.694v15.753zM164.86 232.401c-.262.301-.393.67-.393 1.107 0 .437.131.801.393 1.092.272.291.67.437 1.195.437.524 0 .922-.146 1.194-.437.272-.291.408-.655.408-1.092 0-.437-.136-.806-.408-1.107-.272-.301-.67-.451-1.194-.451-.525 0-.923.15-1.195.451zM174.488 255.259v-17.573h-2.694v17.631c0 .805-.161 1.368-.481 1.689-.311.33-.767.495-1.369.495-.505 0-.913-.039-1.224-.117v2.155a4.997 4.997 0 0 0 1.646.262c2.748 0 4.122-1.514 4.122-4.542zM171.91 232.416a1.606 1.606 0 0 0-.393 1.092c0 .437.131.801.393 1.092.262.291.656.437 1.18.437.524 0 .923-.146 1.194-.437.272-.291.408-.655.408-1.092 0-.437-.136-.806-.408-1.107-.271-.301-.67-.451-1.194-.451-.515 0-.908.155-1.18.466z" fill="#000"/><path fill-rule="evenodd" clip-rule="evenodd" d="M188.195 251.779c.097.796.223 1.349.378 1.66h2.826v-.233c-.369-.854-.553-2.004-.553-3.451v-7.25c-.039-1.592-.573-2.839-1.603-3.741-1.029-.913-2.451-1.369-4.267-1.369-1.146 0-2.2.214-3.161.641-.952.427-1.709 1.009-2.272 1.747-.554.728-.831 1.485-.831 2.271h2.71c0-.689.325-1.276.976-1.762.65-.485 1.456-.728 2.417-.728 1.098 0 1.928.282 2.491.845.563.553.845 1.3.845 2.242v1.237h-2.622c-2.262 0-4.02.456-5.273 1.369-1.243.902-1.864 2.174-1.864 3.814 0 1.349.495 2.465 1.486 3.349 1 .873 2.277 1.31 3.83 1.31 1.739 0 3.234-.65 4.487-1.951zm-1.69-1.048a4.732 4.732 0 0 1-2.403.655c-.884 0-1.607-.238-2.171-.713-.563-.476-.844-1.136-.844-1.98 0-1.932 1.65-2.898 4.952-2.898h2.112v3.232c-.34.699-.888 1.267-1.646 1.704z" fill="#000"/><path d="M197.706 239.666l-.087-1.98h-2.549v15.753h2.694v-11.225a4.742 4.742 0 0 1 1.544-1.834c.661-.466 1.428-.699 2.302-.699 1.078 0 1.869.272 2.374.815.515.544.777 1.383.787 2.519v10.424h2.694v-10.41c-.029-3.756-1.709-5.634-5.039-5.634-1.943 0-3.516.757-4.72 2.271z" fill="#000"/><path fill-rule="evenodd" clip-rule="evenodd" d="M223.211 251.546c1.107-1.465 1.66-3.402 1.66-5.809v-.233c0-2.514-.548-4.494-1.646-5.94-1.087-1.446-2.587-2.169-4.5-2.169-1.913 0-3.414.675-4.501 2.024v-8.342h-2.695v22.362h2.476l.131-1.82c1.088 1.407 2.627 2.111 4.618 2.111 1.864 0 3.35-.728 4.457-2.184zm-2.098-10.366c.709 1 1.064 2.417 1.064 4.251 0 2.01-.36 3.514-1.078 4.514-.719.999-1.724 1.499-3.015 1.499-1.748 0-3.035-.825-3.86-2.475v-6.813c.777-1.65 2.054-2.475 3.831-2.475 1.33 0 2.35.5 3.058 1.499zM229.343 239.608c-1.146 1.466-1.719 3.407-1.719 5.823v.204c0 2.407.573 4.358 1.719 5.853 1.156 1.495 2.646 2.242 4.472 2.242 1.922 0 3.423-.66 4.501-1.98l.131 1.689h2.476v-22.362h-2.695v8.211c-1.078-1.262-2.539-1.893-4.384-1.893-1.855 0-3.355.738-4.501 2.213zm2.083 10.322c-.738-1.009-1.107-2.407-1.107-4.193 0-1.999.369-3.508 1.107-4.528.738-1.019 1.767-1.528 3.088-1.528 1.67 0 2.908.742 3.714 2.227v7.236c-.786 1.533-2.034 2.3-3.743 2.3-1.301 0-2.321-.504-3.059-1.514zM254.469 251.779c.097.796.223 1.349.379 1.66h2.826v-.233c-.369-.854-.554-2.004-.554-3.451v-7.25c-.039-1.592-.573-2.839-1.602-3.741-1.03-.913-2.452-1.369-4.268-1.369-1.146 0-2.199.214-3.161.641-.951.427-1.709 1.009-2.272 1.747-.554.728-.83 1.485-.83 2.271h2.709c0-.689.325-1.276.976-1.762.65-.485 1.456-.728 2.418-.728 1.097 0 1.927.282 2.491.845.563.553.844 1.3.844 2.242v1.237h-2.621c-2.263 0-4.021.456-5.273 1.369-1.243.902-1.865 2.174-1.865 3.814 0 1.349.496 2.465 1.486 3.349 1 .873 2.277 1.31 3.831 1.31 1.738 0 3.233-.65 4.486-1.951zm-1.69-1.048a4.732 4.732 0 0 1-2.403.655c-.884 0-1.607-.238-2.17-.713-.563-.476-.845-1.136-.845-1.98 0-1.932 1.651-2.898 4.952-2.898h2.112v3.232c-.339.699-.888 1.267-1.646 1.704z" fill="#000"/><path d="M263.981 239.666l-.088-1.98h-2.549v15.753h2.695v-11.225a4.733 4.733 0 0 1 1.544-1.834c.66-.466 1.427-.699 2.301-.699 1.078 0 1.869.272 2.374.815.515.544.777 1.383.787 2.519v10.424h2.695v-10.41c-.03-3.756-1.709-5.634-5.04-5.634-1.942 0-3.515.757-4.719 2.271z" fill="#000"/><path fill-rule="evenodd" clip-rule="evenodd" d="M140.424 148.834c0 2.407-.554 4.343-1.661 5.809-1.107 1.456-2.592 2.184-4.457 2.184-1.99 0-3.53-.704-4.617-2.111l-.131 1.82h-2.476v-22.363h2.694v8.343c1.088-1.349 2.588-2.024 4.501-2.024 1.913 0 3.413.723 4.501 2.169 1.097 1.446 1.646 3.426 1.646 5.94v.233zm-2.695-.306c0-1.834-.354-3.251-1.063-4.251-.709-.999-1.729-1.499-3.059-1.499-1.777 0-3.054.825-3.831 2.475v6.813c.826 1.65 2.112 2.475 3.86 2.475 1.292 0 2.297-.5 3.015-1.499.719-1 1.078-2.504 1.078-4.514z" fill="#000"/><path d="M146.614 140.783v17.573c0 3.028-1.374 4.542-4.122 4.542a4.997 4.997 0 0 1-1.646-.262v-2.155c.311.078.719.117 1.224.117.602 0 1.058-.165 1.369-.495.32-.321.481-.884.481-1.689v-17.631h2.694zM143.643 136.605c0-.427.131-.791.393-1.092.272-.311.665-.466 1.18-.466.524 0 .922.15 1.194.451.272.301.408.67.408 1.107 0 .437-.136.801-.408 1.092-.272.291-.67.436-1.194.436-.524 0-.918-.145-1.18-.436-.262-.291-.393-.655-.393-1.092zM152.295 156.536v-13.671h-2.491v-2.082h2.491v-1.616c0-1.689.452-2.994 1.355-3.916.903-.922 2.18-1.383 3.83-1.383.622 0 1.238.082 1.85.247l-.145 2.184a7.779 7.779 0 0 0-1.457-.131c-.874 0-1.549.257-2.025.772-.475.504-.713 1.232-.713 2.183v1.66h3.364v2.082h-3.364v13.671h-2.695z" fill="#000"/><path fill-rule="evenodd" clip-rule="evenodd" d="M171.07 156.536c-.155-.311-.281-.864-.378-1.66-1.253 1.301-2.749 1.951-4.487 1.951-1.553 0-2.83-.437-3.831-1.31-.99-.884-1.485-2-1.485-3.349 0-1.64.621-2.912 1.864-3.814 1.253-.913 3.01-1.369 5.273-1.369h2.622v-1.237c0-.942-.282-1.689-.845-2.242-.563-.563-1.393-.845-2.491-.845-.961 0-1.767.243-2.418.728-.65.485-.976 1.073-.976 1.762h-2.709c0-.786.277-1.543.83-2.271.564-.738 1.321-1.32 2.273-1.747.961-.428 2.015-.641 3.161-.641 1.815 0 3.238.456 4.267 1.368 1.03.903 1.564 2.15 1.603 3.742v7.25c0 1.447.184 2.597.553 3.451v.233h-2.826zm-4.471-2.053c.844 0 1.645-.218 2.403-.655.757-.437 1.306-1.005 1.646-1.704v-3.232h-2.112c-3.302 0-4.953.966-4.953 2.898 0 .844.282 1.504.845 1.98.563.475 1.287.713 2.171.713z" fill="#000"/><path d="M180.116 140.783l.087 1.98c1.204-1.514 2.777-2.271 4.719-2.271 3.331 0 5.011 1.878 5.04 5.634v10.41h-2.695v-10.424c-.009-1.136-.271-1.975-.786-2.519-.505-.544-1.297-.815-2.374-.815-.874 0-1.641.233-2.302.699a4.742 4.742 0 0 0-1.544 1.834v11.225h-2.694v-15.753h2.549z" fill="#000"/><path fill-rule="evenodd" clip-rule="evenodd" d="M207.368 148.834c0 2.407-.553 4.343-1.66 5.809-1.107 1.456-2.593 2.184-4.457 2.184-1.991 0-3.53-.704-4.618-2.111l-.131 1.82h-2.476v-22.363h2.695v8.343c1.087-1.349 2.587-2.024 4.5-2.024 1.913 0 3.414.723 4.501 2.169 1.098 1.446 1.646 3.426 1.646 5.94v.233zm-2.694-.306c0-1.834-.355-3.251-1.064-4.251-.709-.999-1.728-1.499-3.059-1.499-1.777 0-3.054.825-3.83 2.475v6.813c.825 1.65 2.112 2.475 3.86 2.475 1.291 0 2.296-.5 3.015-1.499.718-1 1.078-2.504 1.078-4.514zM210.063 148.514c0-1.543.301-2.931.903-4.164.612-1.233 1.457-2.184 2.534-2.853 1.088-.67 2.326-1.005 3.715-1.005 2.146 0 3.879.742 5.2 2.227 1.33 1.485 1.995 3.461 1.995 5.926v.189c0 1.534-.296 2.912-.888 4.135-.583 1.213-1.423 2.159-2.52 2.839-1.088.679-2.34 1.019-3.758 1.019-2.137 0-3.87-.743-5.2-2.228-1.321-1.485-1.981-3.45-1.981-5.896v-.189zm2.709.32c0 1.747.403 3.15 1.209 4.208.816 1.058 1.903 1.587 3.263 1.587 1.369 0 2.457-.534 3.263-1.602.805-1.077 1.208-2.582 1.208-4.513 0-1.728-.412-3.125-1.238-4.193-.815-1.077-1.903-1.616-3.262-1.616-1.331 0-2.404.529-3.219 1.587-.816 1.058-1.224 2.572-1.224 4.542zM237.519 156.536c-.155-.311-.281-.864-.378-1.66-1.253 1.301-2.748 1.951-4.487 1.951-1.553 0-2.83-.437-3.83-1.31-.991-.884-1.486-2-1.486-3.349 0-1.64.621-2.912 1.864-3.814 1.253-.913 3.011-1.369 5.273-1.369h2.622v-1.237c0-.942-.282-1.689-.845-2.242-.563-.563-1.393-.845-2.491-.845-.961 0-1.767.243-2.418.728-.65.485-.975 1.073-.975 1.762h-2.71c0-.786.277-1.543.831-2.271.563-.738 1.32-1.32 2.272-1.747.961-.428 2.015-.641 3.161-.641 1.815 0 3.238.456 4.267 1.368 1.03.903 1.564 2.15 1.603 3.742v7.25c0 1.447.184 2.597.553 3.451v.233h-2.826zm-4.471-2.053c.844 0 1.646-.218 2.403-.655.757-.437 1.306-1.005 1.646-1.704v-3.232h-2.112c-3.302 0-4.952.966-4.952 2.898 0 .844.281 1.504.844 1.98.564.475 1.287.713 2.171.713z" fill="#000"/><path d="M246.565 140.783l.087 1.98c1.204-1.514 2.777-2.271 4.719-2.271 3.331 0 5.011 1.878 5.04 5.634v10.41h-2.694v-10.424c-.01-1.136-.272-1.975-.787-2.519-.505-.544-1.296-.815-2.374-.815-.874 0-1.641.233-2.302.699a4.742 4.742 0 0 0-1.544 1.834v11.225h-2.694v-15.753h2.549z" fill="#000"/><path fill-rule="evenodd" clip-rule="evenodd" d="M273.817 148.834c0 2.407-.553 4.343-1.66 5.809-1.107 1.456-2.593 2.184-4.457 2.184-1.991 0-3.53-.704-4.618-2.111l-.131 1.82h-2.476v-22.363h2.695v8.343c1.087-1.349 2.588-2.024 4.501-2.024 1.912 0 3.413.723 4.5 2.169 1.098 1.446 1.646 3.426 1.646 5.94v.233zm-2.694-.306c0-1.834-.355-3.251-1.064-4.251-.709-.999-1.728-1.499-3.059-1.499-1.777 0-3.053.825-3.83 2.475v6.813c.825 1.65 2.112 2.475 3.86 2.475 1.291 0 2.296-.5 3.015-1.499.718-1 1.078-2.504 1.078-4.514zM566.308 348.435c1.097-1.466 1.646-3.397 1.646-5.795v-.247c0-2.543-.554-4.528-1.661-5.955-1.097-1.427-2.592-2.14-4.486-2.14-1.952 0-3.476.679-4.574 2.038l-.131-1.747h-2.461v21.809h2.694v-7.585c1.098 1.213 2.603 1.82 4.516 1.82 1.874 0 3.36-.733 4.457-2.198zm-2.185-10.308c.757 1.029 1.136 2.431 1.136 4.208 0 2.018-.383 3.542-1.151 4.571-.757 1.019-1.781 1.529-3.073 1.529-1.66 0-2.894-.719-3.7-2.155v-7.527c.816-1.446 2.04-2.169 3.671-2.169 1.321 0 2.36.514 3.117 1.543zM571.581 338.156c-.602 1.233-.903 2.621-.903 4.164v.189c0 2.446.66 4.412 1.981 5.897 1.33 1.484 3.063 2.227 5.2 2.227 1.417 0 2.67-.34 3.758-1.019 1.097-.68 1.937-1.626 2.519-2.839.593-1.223.889-2.601.889-4.135v-.189c0-2.465-.665-4.44-1.996-5.925-1.32-1.485-3.054-2.228-5.2-2.228-1.388 0-2.626.335-3.714 1.005-1.078.669-1.923 1.621-2.534 2.853zm3.015 8.692c-.806-1.058-1.209-2.461-1.209-4.208 0-1.97.408-3.484 1.223-4.542.816-1.058 1.889-1.587 3.219-1.587 1.36 0 2.447.539 3.263 1.616.826 1.068 1.238 2.465 1.238 4.193 0 1.931-.403 3.436-1.209 4.513-.806 1.068-1.893 1.602-3.262 1.602-1.36 0-2.447-.529-3.263-1.587z" fill="#000"/><path d="M596.75 344.475c.554.398.831.961.831 1.688 0 .69-.311 1.243-.933 1.66-.611.408-1.427.612-2.447.612-1.107 0-2-.262-2.68-.787-.67-.533-1.029-1.252-1.078-2.154h-2.694c0 .932.272 1.8.815 2.606.554.796 1.316 1.417 2.287 1.863.971.447 2.088.67 3.35.67 1.797 0 3.258-.422 4.385-1.267 1.126-.854 1.689-1.984 1.689-3.392 0-.844-.204-1.558-.611-2.14-.399-.592-1.015-1.097-1.85-1.514-.835-.417-1.928-.777-3.278-1.077-1.34-.301-2.267-.617-2.782-.947-.514-.33-.772-.82-.772-1.47 0-.689.277-1.247.831-1.674.553-.427 1.32-.641 2.301-.641.952 0 1.738.267 2.36.801.631.534.946 1.169.946 1.907h2.71c0-1.437-.559-2.616-1.675-3.538-1.107-.922-2.554-1.383-4.341-1.383-1.699 0-3.098.447-4.195 1.339-1.088.893-1.631 1.985-1.631 3.276 0 .777.189 1.446.568 2.009.388.563.98 1.049 1.777 1.456.806.408 1.888.757 3.248 1.048 1.369.292 2.326.641 2.869 1.049zM607.442 334.589v-3.814h-2.695v3.814h-2.869v2.082h2.869v9.769c0 1.339.306 2.373.918 3.101.611.728 1.519 1.092 2.723 1.092.67 0 1.36-.097 2.069-.291v-2.184c-.544.116-.971.175-1.282.175-.631 0-1.078-.156-1.34-.466-.262-.32-.393-.796-.393-1.427v-9.769h2.942v-2.082h-2.942zM620.667 350.342h13.896v-2.199h-10.647l5.68-6.158c2.661-2.883 3.991-5.367 3.991-7.454 0-1.718-.573-3.091-1.719-4.12-1.145-1.039-2.704-1.558-4.675-1.558-2.107 0-3.792.602-5.054 1.805-1.253 1.204-1.879 2.781-1.879 4.732h2.694c0-1.359.369-2.417 1.107-3.174.748-.767 1.792-1.15 3.132-1.15 1.117 0 2.01.354 2.68 1.063.67.708 1.005 1.616 1.005 2.722 0 .825-.209 1.626-.626 2.403-.408.766-1.156 1.766-2.243 2.999l-7.342 8.153v1.936zM130.5 350.342v-13.671h-2.491v-2.082h2.491v-1.616c0-1.689.451-2.994 1.354-3.916.903-.922 2.18-1.383 3.831-1.383.622 0 1.238.082 1.85.247l-.146 2.184a7.768 7.768 0 0 0-1.456-.131c-.874 0-1.549.257-2.025.772-.476.504-.714 1.232-.714 2.184v1.659h3.365v2.082h-3.365v13.671H130.5z" fill="#000"/><path fill-rule="evenodd" clip-rule="evenodd" d="M149.275 350.342c-.155-.311-.282-.864-.379-1.66-1.252 1.301-2.748 1.951-4.486 1.951-1.554 0-2.831-.437-3.831-1.31-.99-.884-1.485-2-1.485-3.349 0-1.64.621-2.912 1.864-3.814 1.253-.913 3.01-1.369 5.273-1.369h2.622v-1.237c0-.942-.282-1.689-.845-2.242-.563-.563-1.394-.845-2.491-.845-.961 0-1.767.243-2.418.728-.651.486-.976 1.073-.976 1.762h-2.709c0-.786.277-1.543.83-2.271.563-.738 1.321-1.32 2.272-1.747.962-.427 2.015-.641 3.161-.641 1.816 0 3.239.456 4.268 1.369 1.029.902 1.563 2.149 1.602 3.741v7.25c0 1.447.185 2.597.554 3.451v.233h-2.826zm-4.472-2.053c.845 0 1.646-.218 2.404-.655.757-.437 1.306-1.005 1.646-1.703v-3.233h-2.112c-3.302 0-4.953.966-4.953 2.898 0 .844.282 1.504.845 1.98.563.475 1.287.713 2.17.713z" fill="#000"/><path d="M158.32 334.589l.088 1.98c1.204-1.514 2.777-2.271 4.719-2.271 3.331 0 5.011 1.878 5.04 5.634v10.41h-2.695v-10.424c-.01-1.136-.272-1.975-.786-2.519-.505-.543-1.297-.815-2.375-.815-.874 0-1.641.233-2.301.699a4.749 4.749 0 0 0-1.544 1.834v11.225h-2.695v-15.753h2.549z" fill="#000"/><path fill-rule="evenodd" clip-rule="evenodd" d="M181.961 350.342c-.156-.311-.282-.864-.379-1.66-1.253 1.301-2.748 1.951-4.486 1.951-1.554 0-2.831-.437-3.831-1.31-.991-.884-1.486-2-1.486-3.349 0-1.64.622-2.912 1.865-3.814 1.252-.913 3.01-1.369 5.272-1.369h2.622v-1.237c0-.942-.281-1.689-.845-2.242-.563-.563-1.393-.845-2.49-.845-.962 0-1.768.243-2.418.728-.651.486-.976 1.073-.976 1.762H172.1c0-.786.276-1.543.83-2.271.563-.738 1.32-1.32 2.272-1.747.961-.427 2.015-.641 3.161-.641 1.816 0 3.238.456 4.268 1.369 1.029.902 1.563 2.149 1.602 3.741v7.25c0 1.447.184 2.597.553 3.451v.233h-2.825zm-4.472-2.053c.845 0 1.646-.218 2.403-.655.758-.437 1.306-1.005 1.646-1.703v-3.233h-2.112c-3.301 0-4.952.966-4.952 2.898 0 .844.281 1.504.845 1.98.563.475 1.286.713 2.17.713z" fill="#000"/><path d="M191.006 334.589l.087 1.98c1.204-1.514 2.778-2.271 4.72-2.271 3.33 0 5.01 1.878 5.039 5.634v10.41h-2.694v-10.424c-.01-1.136-.272-1.975-.787-2.519-.505-.543-1.296-.815-2.374-.815-.874 0-1.641.233-2.301.699a4.74 4.74 0 0 0-1.544 1.834v11.225h-2.695v-15.753h2.549z" fill="#000"/><path fill-rule="evenodd" clip-rule="evenodd" d="M204.203 342.32c0-1.543.301-2.931.903-4.164.611-1.232 1.456-2.184 2.534-2.853 1.088-.67 2.326-1.005 3.714-1.005 2.146 0 3.88.743 5.2 2.228 1.331 1.485 1.996 3.46 1.996 5.925v.189c0 1.534-.296 2.912-.889 4.135-.582 1.213-1.422 2.159-2.52 2.839-1.087.679-2.34 1.019-3.758 1.019-2.136 0-3.869-.743-5.199-2.227-1.321-1.485-1.981-3.451-1.981-5.897v-.189zm2.709.32c0 1.747.403 3.15 1.209 4.208.815 1.058 1.903 1.587 3.262 1.587 1.37 0 2.457-.534 3.263-1.602.806-1.077 1.209-2.582 1.209-4.513 0-1.728-.413-3.125-1.238-4.193-.816-1.077-1.903-1.616-3.263-1.616-1.33 0-2.403.529-3.219 1.587-.815 1.058-1.223 2.572-1.223 4.542z" fill="#000"/><path d="M224.478 334.589l.088 1.98c1.204-1.514 2.777-2.271 4.719-2.271 3.331 0 5.01 1.878 5.04 5.634v10.41h-2.695v-10.424c-.01-1.136-.272-1.975-.787-2.519-.505-.543-1.296-.815-2.374-.815-.874 0-1.641.233-2.301.699a4.74 4.74 0 0 0-1.544 1.834v11.225h-2.695v-15.753h2.549z" fill="#000"/><path fill-rule="evenodd" clip-rule="evenodd" d="M237.675 342.32c0-1.543.301-2.931.903-4.164.612-1.232 1.456-2.184 2.534-2.853 1.088-.67 2.326-1.005 3.715-1.005 2.146 0 3.879.743 5.2 2.228 1.33 1.485 1.995 3.46 1.995 5.925v.189c0 1.534-.296 2.912-.888 4.135-.583 1.213-1.423 2.159-2.52 2.839-1.088.679-2.341 1.019-3.758 1.019-2.137 0-3.87-.743-5.2-2.227-1.321-1.485-1.981-3.451-1.981-5.897v-.189zm2.709.32c0 1.747.403 3.15 1.209 4.208.816 1.058 1.903 1.587 3.263 1.587 1.369 0 2.456-.534 3.262-1.602.806-1.077 1.209-2.582 1.209-4.513 0-1.728-.412-3.125-1.238-4.193-.815-1.077-1.903-1.616-3.262-1.616-1.331 0-2.404.529-3.22 1.587-.815 1.058-1.223 2.572-1.223 4.542z" fill="#000"/><path d="M258.183 334.589v17.573c0 3.028-1.374 4.542-4.122 4.542a4.997 4.997 0 0 1-1.646-.262v-2.155c.311.078.719.117 1.224.117.602 0 1.058-.165 1.369-.495.32-.321.481-.884.481-1.689v-17.631h2.694zM255.212 330.411c0-.427.131-.791.393-1.092.272-.311.665-.466 1.18-.466.524 0 .923.151 1.194.451.272.301.408.67.408 1.107 0 .437-.136.801-.408 1.092-.271.291-.67.437-1.194.437-.524 0-.918-.146-1.18-.437-.262-.291-.393-.655-.393-1.092zM270.156 337.006a8.057 8.057 0 0 0-1.325-.102c-1.767 0-2.967.752-3.598 2.257v11.181h-2.694v-15.753h2.621l.044 1.82c.884-1.407 2.136-2.111 3.758-2.111.524 0 .923.068 1.194.204v2.504z" fill="#000"/><path fill-rule="evenodd" clip-rule="evenodd" d="M570.44 439.543c0 2.398-.549 4.329-1.646 5.795-1.097 1.465-2.583 2.198-4.457 2.198-1.913 0-3.418-.607-4.516-1.82v7.585h-2.694v-21.809h2.461l.131 1.747c1.098-1.358 2.622-2.038 4.574-2.038 1.894 0 3.389.714 4.486 2.14 1.107 1.427 1.661 3.412 1.661 5.955v.247zm-2.695-.305c0-1.777-.379-3.179-1.136-4.208-.757-1.029-1.797-1.543-3.117-1.543-1.632 0-2.855.723-3.671 2.169v7.527c.806 1.436 2.039 2.155 3.7 2.155 1.291 0 2.316-.51 3.073-1.529.767-1.029 1.151-2.553 1.151-4.571zM573.164 439.223c0-1.543.301-2.931.903-4.164.611-1.232 1.456-2.184 2.534-2.853 1.088-.67 2.326-1.005 3.714-1.005 2.146 0 3.88.743 5.2 2.228 1.331 1.485 1.996 3.46 1.996 5.925v.189c0 1.534-.296 2.912-.889 4.135-.582 1.213-1.422 2.16-2.52 2.839-1.087.679-2.34 1.019-3.758 1.019-2.136 0-3.869-.742-5.2-2.227-1.32-1.485-1.98-3.451-1.98-5.897v-.189zm2.709.32c0 1.747.403 3.15 1.209 4.208.815 1.058 1.903 1.587 3.262 1.587 1.37 0 2.457-.534 3.263-1.602.806-1.077 1.209-2.582 1.209-4.513 0-1.728-.413-3.125-1.238-4.193-.816-1.077-1.903-1.616-3.263-1.616-1.33 0-2.403.529-3.219 1.587-.815 1.058-1.223 2.572-1.223 4.542z" fill="#000"/><path d="M600.067 443.067c0-.728-.277-1.291-.831-1.689-.544-.408-1.5-.757-2.869-1.049-1.36-.291-2.442-.64-3.248-1.048-.797-.407-1.389-.893-1.777-1.456-.379-.563-.568-1.232-.568-2.009 0-1.291.543-2.383 1.631-3.275 1.097-.893 2.496-1.34 4.195-1.34 1.787 0 3.233.461 4.34 1.383 1.117.922 1.676 2.102 1.676 3.538h-2.71c0-.738-.315-1.373-.946-1.907-.622-.534-1.408-.801-2.36-.801-.981 0-1.748.214-2.302.641-.553.427-.83.985-.83 1.674 0 .65.258 1.14.772 1.47.515.33 1.442.646 2.782.947 1.35.301 2.442.66 3.278 1.077.835.417 1.451.922 1.849 1.514.408.582.612 1.296.612 2.14 0 1.408-.563 2.538-1.689 3.392-1.127.845-2.588 1.267-4.385 1.267-1.262 0-2.379-.223-3.35-.67-.971-.446-1.733-1.067-2.287-1.863-.543-.806-.815-1.674-.815-2.606h2.694c.049.902.408 1.621 1.078 2.155.68.524 1.573.786 2.68.786 1.02 0 1.836-.204 2.447-.612.622-.417.933-.97.933-1.659zM609.928 427.678v3.814h2.942v2.082h-2.942v9.769c0 .631.131 1.107.393 1.427.262.31.709.466 1.34.466.311 0 .738-.058 1.282-.175v2.184a7.826 7.826 0 0 1-2.069.291c-1.204 0-2.112-.364-2.723-1.092-.612-.728-.918-1.761-.918-3.101v-9.769h-2.87v-2.082h2.87v-3.814h2.695zM627.071 435.336h2.025c1.272-.02 2.272-.354 3.001-1.005.728-.65 1.092-1.528 1.092-2.635 0-2.485-1.238-3.727-3.714-3.727-1.165 0-2.098.335-2.797 1.005-.689.66-1.034 1.538-1.034 2.635h-2.695c0-1.679.612-3.072 1.836-4.179 1.233-1.116 2.796-1.674 4.69-1.674 2 0 3.568.529 4.705 1.587 1.136 1.058 1.704 2.528 1.704 4.411 0 .922-.301 1.815-.903 2.679-.593.864-1.403 1.509-2.433 1.936 1.165.369 2.064.981 2.695 1.835.641.854.961 1.897.961 3.13 0 1.902-.621 3.412-1.864 4.528-1.243 1.116-2.86 1.674-4.851 1.674-1.99 0-3.612-.539-4.865-1.616-1.243-1.077-1.864-2.499-1.864-4.266h2.709c0 1.116.364 2.009 1.093 2.679.728.67 1.704 1.005 2.927 1.005 1.302 0 2.297-.34 2.986-1.019.69-.68 1.035-1.655 1.035-2.927 0-1.232-.379-2.179-1.137-2.839-.757-.66-1.849-.999-3.277-1.019h-2.025v-2.198zM133.67 433.574v13.671h2.695v-13.671h3.365v-2.082h-3.365v-1.659c0-.952.238-1.679.714-2.184.475-.515 1.15-.772 2.024-.772.515 0 1 .044 1.457.131l.145-2.184a7.066 7.066 0 0 0-1.849-.247c-1.651 0-2.928.461-3.831 1.383-.903.922-1.355 2.227-1.355 3.916v1.616h-2.491v2.082h2.491zM145.425 441.713l1.689-1.762 5.492 7.294h3.16l-6.845-9.172 6.132-6.581h-3.278l-4.908 5.183-1.442 1.733v-13.525h-2.695v22.362h2.695v-5.532z" fill="#000"/><path fill-rule="evenodd" clip-rule="evenodd" d="M158.024 435.059c-.602 1.233-.903 2.621-.903 4.164v.189c0 2.446.66 4.412 1.981 5.897 1.33 1.485 3.064 2.227 5.2 2.227 1.418 0 2.67-.34 3.758-1.019 1.097-.679 1.937-1.626 2.52-2.839.592-1.223.888-2.601.888-4.135v-.189c0-2.465-.665-4.44-1.995-5.925-1.321-1.485-3.054-2.228-5.2-2.228-1.389 0-2.627.335-3.714 1.005-1.078.669-1.923 1.621-2.535 2.853zm3.015 8.692c-.806-1.058-1.209-2.461-1.209-4.208 0-1.97.408-3.484 1.224-4.542.816-1.058 1.889-1.587 3.219-1.587 1.359 0 2.447.539 3.263 1.616.825 1.068 1.238 2.465 1.238 4.193 0 1.931-.403 3.436-1.209 4.513-.806 1.068-1.894 1.602-3.263 1.602-1.359 0-2.447-.529-3.263-1.587zM175.911 433.414c-1.146 1.466-1.719 3.407-1.719 5.824v.203c0 2.407.573 4.358 1.719 5.853 1.156 1.495 2.646 2.242 4.472 2.242 1.922 0 3.423-.66 4.5-1.98l.132 1.689h2.476v-22.362h-2.695v8.211c-1.078-1.262-2.539-1.893-4.384-1.893-1.855 0-3.355.738-4.501 2.213zm2.083 10.322c-.738-1.009-1.107-2.407-1.107-4.193 0-1.999.369-3.508 1.107-4.527.738-1.02 1.767-1.529 3.088-1.529 1.67 0 2.908.742 3.714 2.227v7.236c-.786 1.534-2.034 2.3-3.743 2.3-1.302 0-2.321-.504-3.059-1.514zM201.037 445.585c.097.796.223 1.349.379 1.66h2.825v-.233c-.369-.854-.553-2.004-.553-3.45v-7.251c-.039-1.592-.573-2.839-1.602-3.741-1.03-.913-2.452-1.369-4.268-1.369-1.146 0-2.2.214-3.161.641-.952.427-1.709 1.009-2.272 1.747-.554.728-.83 1.485-.83 2.271h2.709c0-.689.325-1.276.976-1.762.65-.485 1.456-.728 2.418-.728 1.097 0 1.927.282 2.49.845.564.553.845 1.3.845 2.242v1.237h-2.622c-2.262 0-4.02.457-5.272 1.369-1.243.903-1.865 2.174-1.865 3.814 0 1.349.495 2.466 1.486 3.349 1 .873 2.277 1.31 3.831 1.31 1.738 0 3.233-.65 4.486-1.951zm-1.69-1.048a4.732 4.732 0 0 1-2.403.655c-.884 0-1.607-.238-2.17-.713-.564-.476-.845-1.136-.845-1.98 0-1.932 1.651-2.897 4.952-2.897h2.112v3.232c-.34.698-.888 1.266-1.646 1.703z" fill="#000"/><path d="M210.548 433.472l-.087-1.98h-2.549v15.753h2.695V436.02a4.74 4.74 0 0 1 1.544-1.834c.66-.466 1.427-.699 2.301-.699 1.078 0 1.869.272 2.374.815.515.544.777 1.383.787 2.519v10.424h2.694v-10.41c-.029-3.756-1.709-5.634-5.039-5.634-1.942 0-3.516.757-4.72 2.271z" fill="#000"/><path fill-rule="evenodd" clip-rule="evenodd" d="M224.561 435.059c-.602 1.233-.903 2.621-.903 4.164v.189c0 2.446.66 4.412 1.981 5.897 1.33 1.485 3.063 2.227 5.2 2.227 1.417 0 2.67-.34 3.757-1.019 1.098-.679 1.938-1.626 2.52-2.839.593-1.223.889-2.601.889-4.135v-.189c0-2.465-.665-4.44-1.996-5.925-1.32-1.485-3.054-2.228-5.2-2.228-1.388 0-2.626.335-3.714 1.005-1.078.669-1.923 1.621-2.534 2.853zm3.015 8.692c-.806-1.058-1.209-2.461-1.209-4.208 0-1.97.408-3.484 1.223-4.542.816-1.058 1.889-1.587 3.219-1.587 1.36 0 2.447.539 3.263 1.616.826 1.068 1.238 2.465 1.238 4.193 0 1.931-.403 3.436-1.209 4.513-.806 1.068-1.893 1.602-3.262 1.602-1.36 0-2.448-.529-3.263-1.587zM242.447 433.414c-1.145 1.466-1.718 3.407-1.718 5.824v.203c0 2.407.573 4.358 1.718 5.853 1.156 1.495 2.647 2.242 4.472 2.242 1.923 0 3.423-.66 4.501-1.98l.131 1.689h2.476v-22.362h-2.694v8.211c-1.078-1.262-2.54-1.893-4.385-1.893-1.854 0-3.355.738-4.501 2.213zm2.083 10.322c-.738-1.009-1.107-2.407-1.107-4.193 0-1.999.369-3.508 1.107-4.527.738-1.02 1.768-1.529 3.088-1.529 1.671 0 2.909.742 3.715 2.227v7.236c-.787 1.534-2.035 2.3-3.744 2.3-1.301 0-2.321-.504-3.059-1.514zM267.573 445.585c.098.796.224 1.349.379 1.66h2.826v-.233c-.369-.854-.554-2.004-.554-3.45v-7.251c-.038-1.592-.573-2.839-1.602-3.741-1.029-.913-2.452-1.369-4.268-1.369-1.145 0-2.199.214-3.16.641-.952.427-1.709 1.009-2.273 1.747-.553.728-.83 1.485-.83 2.271h2.709c0-.689.326-1.276.976-1.762.651-.485 1.457-.728 2.418-.728 1.097 0 1.928.282 2.491.845.563.553.845 1.3.845 2.242v1.237h-2.622c-2.263 0-4.02.457-5.273 1.369-1.243.903-1.864 2.174-1.864 3.814 0 1.349.495 2.466 1.485 3.349 1.001.873 2.277 1.31 3.831 1.31 1.738 0 3.234-.65 4.486-1.951zm-1.689-1.048a4.739 4.739 0 0 1-2.404.655c-.883 0-1.607-.238-2.17-.713-.563-.476-.845-1.136-.845-1.98 0-1.932 1.651-2.897 4.953-2.897h2.112v3.232c-.34.698-.889 1.266-1.646 1.703z" fill="#000"/><path fill-rule="evenodd" clip-rule="evenodd" d="M793 0H0v487h793V0zM2.486 2.485h392.771v94.418H2.486V2.485zm395.257 94.418h392.771V2.485H397.743v94.418zm392.771 96.903V99.388H397.743v94.418h392.771zm0 2.485H397.743v94.418h392.771v-94.418zm-395.257 0H2.486v94.418h392.771v-94.418zm0-96.903H2.486v94.418h392.771V99.388zm2.486 193.806h392.771v94.418H397.743v-94.418zm-395.257 0h392.771v94.418H2.486v-94.418zm788.028 96.903H397.743v94.418h392.771v-94.418zm-395.257 0v94.418H2.486v-94.418h392.771z" fill="#000"/></svg>