<svg width="1200" height="391" fill="none" xmlns="http://www.w3.org/2000/svg"><path fill="none" d="M0 0h1200v390.207H0z"/><path d="M490.831 47.502c-.856 1.008-2.114 1.512-3.771 1.512-1.372 0-2.419-.397-3.141-1.19-.714-.803-1.075-1.985-1.083-3.55v-8.383h2.201v8.324c0 1.953.793 2.93 2.38 2.93 1.681 0 2.8-.628 3.355-1.882V35.89h2.201v12.885h-2.094l-.048-1.274zM503.823 45.358c0-.595-.226-1.056-.678-1.381-.444-.334-1.226-.62-2.344-.858-1.11-.238-1.995-.523-2.653-.857-.65-.333-1.134-.73-1.451-1.19-.31-.461-.464-1.009-.464-1.644 0-1.056.444-1.95 1.332-2.68.896-.73 2.038-1.095 3.426-1.095 1.46 0 2.642.377 3.546 1.131.912.755 1.368 1.72 1.368 2.894h-2.213c0-.603-.258-1.123-.773-1.56-.508-.437-1.15-.655-1.928-.655-.801 0-1.427.175-1.879.524-.452.35-.678.806-.678 1.37 0 .531.21.932.63 1.202.42.27 1.178.528 2.272.774 1.103.246 1.995.54 2.677.881.682.342 1.186.755 1.511 1.239.333.476.5 1.06.5 1.75 0 1.151-.46 2.076-1.38 2.775-.92.69-2.114 1.036-3.581 1.036-1.031 0-1.943-.183-2.737-.548-.793-.365-1.415-.873-1.867-1.524a3.736 3.736 0 0 1-.667-2.132h2.201c.04.739.333 1.326.881 1.763.555.428 1.285.643 2.189.643.833 0 1.499-.167 1.999-.5.507-.342.761-.794.761-1.358z" fill="#000"/><path fill-rule="evenodd" clip-rule="evenodd" d="M514.233 49.014c-1.745 0-3.165-.572-4.259-1.715-1.095-1.15-1.642-2.687-1.642-4.608v-.405c0-1.278.242-2.418.726-3.418.491-1.008 1.174-1.794 2.046-2.358a5.143 5.143 0 0 1 2.855-.857c1.674 0 2.975.552 3.903 1.655.928 1.104 1.392 2.684 1.392 4.74v.917h-8.721c.032 1.27.401 2.298 1.106 3.084.714.778 1.618 1.167 2.713 1.167.777 0 1.436-.159 1.975-.477a4.976 4.976 0 0 0 1.416-1.262l1.344 1.048c-1.079 1.66-2.697 2.489-4.854 2.489zm-.274-11.55c-.888 0-1.634.325-2.236.976-.603.643-.976 1.548-1.119 2.715h6.449v-.167c-.064-1.12-.365-1.985-.905-2.596-.539-.62-1.269-.929-2.189-.929z" fill="#000"/><path d="M528.034 37.868a6.598 6.598 0 0 0-1.083-.083c-1.443 0-2.423.615-2.938 1.845v9.146h-2.201V35.89h2.141l.036 1.489c.721-1.151 1.745-1.727 3.069-1.727.428 0 .754.056.976.167v2.048zM529.985 41.738c0-1.794.238-3.517.714-5.168a15.126 15.126 0 0 1 2.153-4.501c.952-1.35 1.939-2.303 2.963-2.858l.452 1.453c-1.158.889-2.11 2.246-2.856 4.072-.737 1.826-1.142 3.87-1.213 6.133l-.012 1.012c0 3.064.559 5.724 1.677 7.978.675 1.35 1.476 2.406 2.404 3.168l-.452 1.346c-1.055-.588-2.063-1.572-3.022-2.954-1.872-2.699-2.808-5.926-2.808-9.68zM540.788 48.776h-2.201V35.89h2.201v12.885zM538.408 32.474c0-.358.107-.66.321-.905.222-.247.548-.37.976-.37.428 0 .753.123.976.37.222.246.333.547.333.905 0 .357-.111.655-.333.893-.223.238-.548.357-.976.357-.428 0-.754-.12-.976-.357-.214-.238-.321-.536-.321-.893z" fill="#000"/><path fill-rule="evenodd" clip-rule="evenodd" d="M543.786 42.226c0-1.976.468-3.564 1.404-4.763.935-1.207 2.161-1.81 3.676-1.81 1.507 0 2.7.516 3.581 1.548v-6.716h2.201v18.29h-2.023l-.107-1.38c-.88 1.08-2.106 1.619-3.676 1.619-1.491 0-2.709-.611-3.652-1.834-.936-1.222-1.404-2.818-1.404-4.787v-.167zm2.201.25c0 1.461.301 2.604.904 3.43.603.826 1.435 1.238 2.498 1.238 1.396 0 2.415-.627 3.058-1.881v-5.918c-.658-1.215-1.67-1.822-3.034-1.822-1.079 0-1.919.416-2.522 1.25-.603.833-.904 2.068-.904 3.703z" fill="#000"/><path d="M558.003 47.62c0-.38.111-.698.333-.952.23-.254.571-.381 1.023-.381.452 0 .793.127 1.023.381.238.254.357.572.357.953 0 .365-.119.67-.357.917-.23.246-.571.369-1.023.369-.452 0-.793-.123-1.023-.37-.222-.245-.333-.551-.333-.916zM558.015 37.106c0-.381.111-.699.333-.953.23-.254.571-.38 1.023-.38.452 0 .793.126 1.023.38.238.254.357.572.357.953 0 .365-.119.67-.357.917-.23.246-.571.369-1.023.369-.452 0-.793-.123-1.023-.37-.222-.245-.333-.551-.333-.916zM572.494 44.31a2.47 2.47 0 0 0-.774-1.846c-.507-.5-1.368-.952-2.581-1.357-1.69-.516-2.923-1.187-3.7-2.013-.77-.833-1.154-1.889-1.154-3.167 0-1.302.376-2.37 1.13-3.203.761-.834 1.804-1.33 3.129-1.489v-2.608h1.772v2.62c1.333.183 2.368.742 3.106 1.68.745.936 1.118 2.218 1.118 3.845h-2.189c0-1.119-.266-2.008-.797-2.667-.532-.659-1.249-.988-2.154-.988-.943 0-1.665.246-2.165.738-.5.484-.749 1.163-.749 2.036 0 .81.261 1.457.785 1.941.531.477 1.4.913 2.605 1.31 1.214.39 2.158.822 2.832 1.298.682.468 1.182 1.016 1.499 1.643.325.628.488 1.362.488 2.203 0 1.342-.405 2.422-1.214 3.24-.801.817-1.927 1.301-3.379 1.452v2.275h-1.76v-2.275c-1.476-.135-2.634-.659-3.474-1.572-.833-.92-1.25-2.167-1.25-3.739h2.201c0 1.104.29 1.953.869 2.549.579.595 1.4.893 2.463.893 1.039 0 1.855-.25 2.45-.75.595-.5.893-1.183.893-2.049zM580.048 48.776h-2.201V35.89h2.201v12.885zM577.669 32.474c0-.358.107-.66.321-.905.222-.247.547-.37.976-.37.428 0 .753.123.975.37.222.246.333.547.333.905 0 .357-.111.655-.333.893-.222.238-.547.357-.975.357-.429 0-.754-.12-.976-.357-.214-.238-.321-.536-.321-.893z" fill="#000"/><path fill-rule="evenodd" clip-rule="evenodd" d="M583.046 42.226c0-1.976.468-3.564 1.404-4.763.936-1.207 2.162-1.81 3.677-1.81 1.507 0 2.7.516 3.581 1.548v-6.716h2.201v18.29h-2.023l-.107-1.38c-.88 1.08-2.106 1.619-3.676 1.619-1.491 0-2.709-.611-3.653-1.834-.936-1.222-1.404-2.818-1.404-4.787v-.167zm2.201.25c0 1.461.302 2.604.905 3.43.602.826 1.435 1.238 2.498 1.238 1.396 0 2.415-.627 3.058-1.881v-5.918c-.659-1.215-1.67-1.822-3.034-1.822-1.079 0-1.92.416-2.522 1.25-.603.833-.905 2.068-.905 3.703z" fill="#000"/><path d="M602.415 41.857c0 1.77-.234 3.47-.702 5.097a14.897 14.897 0 0 1-2.129 4.49c-.952 1.373-1.952 2.35-2.999 2.929l-.464-1.346c1.222-.937 2.201-2.39 2.939-4.358.746-1.977 1.126-4.168 1.142-6.574v-.38c0-1.668-.174-3.216-.523-4.645-.349-1.437-.837-2.723-1.464-3.858-.618-1.135-1.316-2.02-2.094-2.656l.464-1.345c1.047.58 2.043 1.548 2.987 2.905a14.918 14.918 0 0 1 2.129 4.49c.476 1.635.714 3.386.714 5.251zM611.659 53.134c-1.404-.397-2.462-1.052-3.176-1.965-.706-.905-1.059-2.103-1.059-3.596v-2.37c0-1.929-.841-2.893-2.522-2.893v-1.727c1.681 0 2.522-.96 2.522-2.882v-2.477c.016-1.452.369-2.623 1.059-3.513.698-.897 1.757-1.548 3.176-1.952l.452 1.369c-1.657.532-2.486 1.917-2.486 4.156v2.405c0 1.802-.662 3.057-1.987 3.763 1.325.715 1.987 1.981 1.987 3.799v2.453c.024 2.183.852 3.537 2.486 4.06l-.452 1.37zM616.454 48.776h-2.201V35.89h2.201v12.885zM614.074 32.474c0-.358.107-.66.322-.905.222-.247.547-.37.975-.37.428 0 .754.123.976.37.222.246.333.547.333.905 0 .357-.111.655-.333.893-.222.238-.548.357-.976.357-.428 0-.753-.12-.975-.357-.215-.238-.322-.536-.322-.893z" fill="#000"/><path fill-rule="evenodd" clip-rule="evenodd" d="M619.452 42.226c0-1.976.468-3.564 1.404-4.763.936-1.207 2.161-1.81 3.676-1.81 1.507 0 2.701.516 3.581 1.548v-6.716h2.201v18.29h-2.022l-.108-1.38c-.88 1.08-2.105 1.619-3.676 1.619-1.491 0-2.708-.611-3.652-1.834-.936-1.222-1.404-2.818-1.404-4.787v-.167zm2.201.25c0 1.461.301 2.604.904 3.43.603.826 1.436 1.238 2.498 1.238 1.396 0 2.416-.627 3.058-1.881v-5.918c-.658-1.215-1.669-1.822-3.034-1.822-1.078 0-1.919.416-2.522 1.25-.603.833-.904 2.068-.904 3.703z" fill="#000"/><path d="M641.866 35.891l.072 1.62c.983-1.239 2.268-1.858 3.854-1.858 2.721 0 4.093 1.536 4.117 4.608v8.515h-2.201V40.25c-.008-.93-.222-1.616-.643-2.06-.412-.445-1.059-.667-1.939-.667-.714 0-1.34.19-1.88.571a3.889 3.889 0 0 0-1.261 1.5v9.182h-2.201V35.89h2.082z" fill="#000"/><path fill-rule="evenodd" clip-rule="evenodd" d="M661.175 48.776c-.126-.254-.23-.707-.309-1.358-1.023 1.064-2.245 1.596-3.664 1.596-1.269 0-2.312-.357-3.129-1.072-.809-.722-1.214-1.635-1.214-2.739 0-1.341.508-2.381 1.523-3.12 1.023-.746 2.459-1.119 4.307-1.119h2.141v-1.012c0-.77-.23-1.381-.69-1.834-.46-.46-1.138-.69-2.034-.69-.785 0-1.444.198-1.975.595-.531.397-.797.877-.797 1.44h-2.213c0-.642.226-1.262.678-1.857.46-.603 1.079-1.08 1.856-1.429.785-.35 1.646-.524 2.582-.524 1.483 0 2.645.373 3.486 1.12.84.738 1.277 1.758 1.308 3.06v5.93c0 1.183.151 2.124.452 2.822v.19h-2.308zm-3.652-1.68c.69 0 1.344-.178 1.963-.535.619-.357 1.067-.822 1.344-1.393v-2.644h-1.725c-2.696 0-4.045.79-4.045 2.37 0 .69.23 1.23.69 1.62.46.388 1.051.583 1.773.583z" fill="#000"/><path d="M668.611 37.32c.944-1.111 2.217-1.667 3.819-1.667 1.801 0 3.026.69 3.676 2.072.429-.62.984-1.12 1.666-1.5.69-.381 1.503-.572 2.439-.572 2.824 0 4.259 1.497 4.307 4.49v8.633h-2.201v-8.503c0-.92-.21-1.607-.631-2.06-.42-.46-1.126-.69-2.117-.69-.817 0-1.496.246-2.035.738-.539.484-.853 1.14-.94 1.965v8.55h-2.213v-8.443c0-1.874-.916-2.81-2.748-2.81-1.443 0-2.431.615-2.962 1.845v9.408h-2.201V35.89h2.082l.059 1.43z" fill="#000"/><path fill-rule="evenodd" clip-rule="evenodd" d="M693.191 49.014c-1.745 0-3.165-.572-4.259-1.715-1.095-1.15-1.642-2.687-1.642-4.608v-.405c0-1.278.242-2.418.726-3.418.491-1.008 1.173-1.794 2.046-2.358a5.143 5.143 0 0 1 2.855-.857c1.674 0 2.974.552 3.902 1.655.928 1.104 1.392 2.684 1.392 4.74v.917h-8.72c.032 1.27.4 2.298 1.106 3.084.714.778 1.618 1.167 2.713 1.167.777 0 1.435-.159 1.975-.477a4.959 4.959 0 0 0 1.415-1.262l1.345 1.048c-1.079 1.66-2.697 2.489-4.854 2.489zm-.274-11.55c-.888 0-1.634.325-2.237.976-.602.643-.975 1.548-1.118 2.715h6.448v-.167c-.063-1.12-.364-1.985-.904-2.596-.539-.62-1.269-.929-2.189-.929z" fill="#000"/><path d="M701.15 46.668c.23-.254.571-.381 1.023-.381.452 0 .793.127 1.023.381.238.254.357.572.357.953 0 .365-.119.67-.357.917-.23.246-.571.369-1.023.369-.452 0-.793-.123-1.023-.37-.222-.245-.333-.551-.333-.916 0-.381.111-.699.333-.953zM707.575 46.668c.23-.254.571-.381 1.023-.381.452 0 .793.127 1.023.381.238.254.357.572.357.953 0 .365-.119.67-.357.917-.23.246-.571.369-1.023.369-.452 0-.793-.123-1.023-.37-.223-.245-.334-.551-.334-.916 0-.381.111-.699.334-.953zM713.999 46.668c.23-.254.571-.381 1.023-.381.452 0 .793.127 1.023.381.238.254.357.572.357.953 0 .365-.119.67-.357.917-.23.246-.571.369-1.023.369-.452 0-.793-.123-1.023-.37-.222-.245-.333-.551-.333-.916 0-.381.111-.699.333-.953zM364.943 197.894c-.857 1.008-2.114 1.512-3.772 1.512-1.372 0-2.419-.397-3.14-1.191-.714-.802-1.075-1.984-1.083-3.548v-8.384h2.201v8.324c0 1.953.793 2.93 2.379 2.93 1.682 0 2.8-.628 3.355-1.882v-9.372h2.201v12.885h-2.094l-.047-1.274zM377.935 195.75c0-.595-.226-1.056-.679-1.381-.444-.333-1.225-.619-2.343-.857-1.111-.239-1.995-.524-2.653-.858-.651-.333-1.135-.73-1.452-1.191-.309-.46-.464-1.008-.464-1.643 0-1.056.444-1.949 1.333-2.679.896-.731 2.038-1.096 3.426-1.096 1.459 0 2.641.377 3.545 1.131.913.755 1.369 1.719 1.369 2.894h-2.213c0-.603-.258-1.123-.774-1.56-.507-.436-1.15-.655-1.927-.655-.801 0-1.428.175-1.88.524a1.65 1.65 0 0 0-.678 1.37c0 .531.21.932.631 1.202.42.27 1.178.528 2.272.774 1.103.246 1.995.54 2.677.882.682.341 1.186.754 1.511 1.238.333.476.5 1.06.5 1.75 0 1.152-.46 2.076-1.38 2.775-.921.691-2.114 1.036-3.582 1.036-1.031 0-1.943-.182-2.736-.548-.793-.365-1.416-.873-1.868-1.524a3.74 3.74 0 0 1-.666-2.131h2.201c.04.738.333 1.325.88 1.762.556.429 1.285.643 2.189.643.833 0 1.5-.167 1.999-.5.508-.342.762-.794.762-1.358z" fill="#000"/><path fill-rule="evenodd" clip-rule="evenodd" d="M388.345 199.406c-1.745 0-3.165-.571-4.26-1.715-1.094-1.151-1.641-2.687-1.641-4.608v-.405c0-1.278.242-2.417.725-3.418.492-1.008 1.174-1.794 2.047-2.357a5.14 5.14 0 0 1 2.855-.858c1.674 0 2.974.552 3.902 1.655.928 1.104 1.392 2.684 1.392 4.74v.917h-8.72c.031 1.27.4 2.298 1.106 3.084.714.778 1.618 1.167 2.713 1.167.777 0 1.435-.159 1.975-.476a4.968 4.968 0 0 0 1.415-1.263l1.345 1.048c-1.079 1.66-2.697 2.489-4.854 2.489zm-.274-11.551c-.888 0-1.634.326-2.237.977-.602.643-.975 1.548-1.118 2.715h6.448v-.167c-.063-1.119-.365-1.985-.904-2.596-.539-.619-1.269-.929-2.189-.929z" fill="#000"/><path d="M402.145 188.26a6.651 6.651 0 0 0-1.082-.083c-1.444 0-2.423.615-2.939 1.845v9.146h-2.201v-12.885h2.142l.035 1.489c.722-1.151 1.745-1.727 3.07-1.727.428 0 .753.056.975.167v2.048zM417.231 199.168h-2.213v-14.683l-4.437 1.632v-2.001l6.305-2.37h.345v17.422z" fill="#000"/><path fill-rule="evenodd" clip-rule="evenodd" d="M146.55 351.39c0 1.961-.448 3.541-1.345 4.739-.896 1.199-2.109 1.799-3.64 1.799-1.563 0-2.792-.497-3.688-1.489v6.204h-2.201v-17.838h2.01l.107 1.429c.897-1.112 2.142-1.667 3.736-1.667 1.547 0 2.768.583 3.665 1.75.904 1.167 1.356 2.791 1.356 4.871v.202zm-2.201-.25c0-1.453-.31-2.6-.928-3.442-.619-.841-1.467-1.262-2.546-1.262-1.333 0-2.332.592-2.998 1.774v6.157c.658 1.175 1.665 1.762 3.022 1.762 1.055 0 1.891-.416 2.51-1.25.627-.841.94-2.088.94-3.739zM148.775 351.128c0-1.262.245-2.398.737-3.406.5-1.008 1.19-1.786 2.07-2.334.889-.548 1.9-.821 3.034-.821 1.753 0 3.169.607 4.247 1.822 1.087 1.214 1.63 2.83 1.63 4.846v.155c0 1.254-.242 2.382-.725 3.382-.476.992-1.162 1.766-2.059 2.322-.888.556-1.911.834-3.069.834-1.745 0-3.161-.608-4.247-1.822-1.079-1.215-1.618-2.823-1.618-4.823v-.155zm2.212.262c0 1.429.33 2.576.988 3.441.666.866 1.554 1.298 2.665 1.298 1.118 0 2.007-.436 2.665-1.309.658-.882.987-2.112.987-3.692 0-1.413-.337-2.556-1.011-3.43-.666-.881-1.554-1.321-2.665-1.321-1.087 0-1.963.432-2.629 1.298-.666.865-1 2.103-1 3.715z" fill="#000"/><path d="M170.749 354.272c0-.596-.226-1.056-.678-1.382-.445-.333-1.226-.619-2.344-.857-1.111-.238-1.995-.524-2.653-.857-.651-.334-1.134-.731-1.452-1.191-.309-.461-.464-1.008-.464-1.644 0-1.055.444-1.949 1.333-2.679.896-.73 2.038-1.095 3.426-1.095 1.46 0 2.641.377 3.546 1.131.912.754 1.368 1.719 1.368 2.894h-2.213c0-.604-.258-1.124-.773-1.56-.508-.437-1.151-.655-1.928-.655-.801 0-1.427.174-1.88.524-.452.349-.678.805-.678 1.369 0 .532.21.933.631 1.203.42.27 1.178.528 2.272.774 1.103.246 1.995.54 2.677.881.682.341 1.186.754 1.511 1.238.333.477.5 1.06.5 1.751 0 1.151-.46 2.076-1.38 2.775-.92.69-2.114 1.036-3.581 1.036-1.032 0-1.944-.183-2.737-.548-.793-.365-1.416-.874-1.868-1.524a3.744 3.744 0 0 1-.666-2.132h2.201c.04.738.333 1.326.88 1.762.556.429 1.285.643 2.19.643.832 0 1.499-.166 1.998-.5.508-.341.762-.794.762-1.357zM178.803 341.685v3.12h2.403v1.703h-2.403v7.99c0 .516.107.905.321 1.167.215.254.579.381 1.095.381.254 0 .603-.048 1.047-.143v1.786a6.818 6.818 0 0 1-1.323.227 5.646 5.646 0 0 1-.367.012c-.983 0-1.725-.298-2.224-.894-.5-.595-.75-1.44-.75-2.536v-7.99h-2.344v-1.703h2.344v-3.12h2.201zM196.839 357.689h-2.213v-14.682l-4.437 1.631v-2.001l6.305-2.369h.345v17.421z" fill="#000"/><path fill-rule="evenodd" clip-rule="evenodd" d="M574.976 351.39c0 1.961-.448 3.541-1.344 4.739-.896 1.199-2.11 1.799-3.641 1.799-1.562 0-2.792-.497-3.688-1.489v6.204h-2.201v-17.838h2.011l.107 1.429c.896-1.112 2.141-1.667 3.736-1.667 1.546 0 2.768.583 3.664 1.75.904 1.167 1.356 2.791 1.356 4.871v.202zm-2.201-.25c0-1.453-.309-2.6-.928-3.442-.618-.841-1.467-1.262-2.546-1.262-1.332 0-2.332.592-2.998 1.774v6.157c.658 1.175 1.666 1.762 3.022 1.762 1.055 0 1.892-.416 2.51-1.25.627-.841.94-2.088.94-3.739zM577.201 351.128c0-1.262.246-2.398.738-3.406.499-1.008 1.189-1.786 2.07-2.334.888-.548 1.899-.821 3.033-.821 1.753 0 3.169.607 4.248 1.822 1.086 1.214 1.63 2.83 1.63 4.846v.155c0 1.254-.242 2.382-.726 3.382-.476.992-1.162 1.766-2.058 2.322-.889.556-1.912.834-3.07.834-1.745 0-3.16-.608-4.247-1.822-1.079-1.215-1.618-2.823-1.618-4.823v-.155zm2.213.262c0 1.429.329 2.576.987 3.441.667.866 1.555 1.298 2.665 1.298 1.119 0 2.007-.436 2.665-1.309.659-.882.988-2.112.988-3.692 0-1.413-.337-2.556-1.012-3.43-.666-.881-1.554-1.321-2.665-1.321-1.086 0-1.963.432-2.629 1.298-.666.865-.999 2.103-.999 3.715z" fill="#000"/><path d="M599.175 354.272c0-.596-.226-1.056-.678-1.382-.444-.333-1.225-.619-2.344-.857-1.11-.238-1.995-.524-2.653-.857-.65-.334-1.134-.731-1.451-1.191-.31-.461-.464-1.008-.464-1.644 0-1.055.444-1.949 1.332-2.679.896-.73 2.039-1.095 3.427-1.095 1.459 0 2.641.377 3.545 1.131.912.754 1.368 1.719 1.368 2.894h-2.213c0-.604-.258-1.124-.773-1.56-.508-.437-1.15-.655-1.927-.655-.802 0-1.428.174-1.88.524-.452.349-.678.805-.678 1.369 0 .532.21.933.63 1.203.421.27 1.178.528 2.273.774 1.102.246 1.994.54 2.676.881.683.341 1.186.754 1.511 1.238.334.477.5 1.06.5 1.751 0 1.151-.46 2.076-1.38 2.775-.92.69-2.114 1.036-3.581 1.036-1.031 0-1.943-.183-2.736-.548-.794-.365-1.416-.874-1.868-1.524a3.745 3.745 0 0 1-.667-2.132h2.201c.04.738.334 1.326.881 1.762.555.429 1.285.643 2.189.643.833 0 1.499-.166 1.999-.5.507-.341.761-.794.761-1.357zM607.23 341.685v3.12h2.403v1.703h-2.403v7.99c0 .516.107.905.321 1.167.214.254.579.381 1.094.381l.052-.001.08-.003.073-.005.102-.009c.207-.022.454-.063.74-.125v1.786a6.367 6.367 0 0 1-1.689.239c-.984 0-1.725-.298-2.225-.894-.5-.595-.749-1.44-.749-2.536v-7.99h-2.344v-1.703h2.344v-3.12h2.201zM629.382 357.689h-11.35v-1.583l5.996-6.669c.889-1.008 1.499-1.826 1.833-2.453.341-.635.511-1.29.511-1.965 0-.905-.274-1.647-.821-2.227-.547-.579-1.277-.869-2.189-.869-1.094 0-1.947.314-2.558.941-.603.619-.904 1.484-.904 2.596h-2.201c0-1.596.512-2.886 1.535-3.87 1.031-.985 2.407-1.477 4.128-1.477 1.61 0 2.883.425 3.819 1.274.936.842 1.404 1.965 1.404 3.37 0 1.707-1.087 3.739-3.26 6.097l-4.64 5.037h8.697v1.798zM779.156 201.958c-.857 1.009-2.114 1.513-3.771 1.513-1.372 0-2.419-.397-3.141-1.191-.714-.802-1.075-1.985-1.083-3.549v-8.383h2.201v8.324c0 1.953.793 2.929 2.38 2.929 1.681 0 2.799-.627 3.355-1.881v-9.372h2.201v12.885h-2.094l-.048-1.275zM792.148 199.815c0-.595-.226-1.056-.678-1.381-.444-.334-1.226-.62-2.344-.858-1.11-.238-1.995-.524-2.653-.857-.651-.334-1.134-.731-1.452-1.191-.309-.46-.464-1.008-.464-1.643 0-1.056.445-1.949 1.333-2.68.896-.73 2.038-1.095 3.426-1.095 1.46 0 2.641.377 3.546 1.131.912.754 1.368 1.719 1.368 2.894h-2.213c0-.604-.258-1.124-.773-1.56-.508-.437-1.15-.655-1.928-.655-.801 0-1.427.174-1.879.524-.453.349-.679.806-.679 1.369 0 .532.211.933.631 1.203.42.27 1.178.528 2.272.774 1.103.246 1.995.54 2.677.881.682.342 1.186.754 1.511 1.239.333.476.5 1.059.5 1.75 0 1.151-.46 2.076-1.38 2.775-.92.69-2.114 1.036-3.581 1.036-1.031 0-1.944-.183-2.737-.548-.793-.365-1.415-.873-1.868-1.524a3.744 3.744 0 0 1-.666-2.132h2.201c.04.738.333 1.326.881 1.763.555.428 1.284.643 2.189.643.832 0 1.499-.167 1.998-.501.508-.341.762-.793.762-1.357z" fill="#000"/><path fill-rule="evenodd" clip-rule="evenodd" d="M802.558 203.471c-1.745 0-3.165-.572-4.259-1.715-1.095-1.151-1.642-2.687-1.642-4.608v-.405c0-1.278.242-2.418.726-3.418.491-1.008 1.173-1.794 2.046-2.358a5.147 5.147 0 0 1 2.855-.857c1.674 0 2.975.552 3.903 1.655.928 1.104 1.391 2.683 1.391 4.739v.917h-8.72c.032 1.271.4 2.299 1.106 3.085.714.778 1.618 1.167 2.713 1.167.777 0 1.435-.159 1.975-.477a4.966 4.966 0 0 0 1.416-1.262l1.344 1.048c-1.079 1.659-2.697 2.489-4.854 2.489zm-.274-11.551c-.888 0-1.634.325-2.236.976-.603.643-.976 1.548-1.119 2.715h6.449v-.166c-.064-1.12-.365-1.985-.905-2.596-.539-.62-1.269-.929-2.189-.929z" fill="#000"/><path d="M816.359 192.325a6.54 6.54 0 0 0-1.083-.084c-1.444 0-2.423.616-2.939 1.846v9.146h-2.201v-12.885h2.142l.036 1.488c.721-1.151 1.745-1.726 3.069-1.726.428 0 .754.055.976.167v2.048zM835.561 203.233h-11.35v-1.584l5.996-6.669c.888-1.008 1.499-1.826 1.832-2.453.341-.635.512-1.29.512-1.965 0-.905-.274-1.647-.821-2.227-.547-.579-1.277-.869-2.189-.869-1.095 0-1.947.314-2.558.941-.603.619-.904 1.484-.904 2.596h-2.201c0-1.596.511-2.886 1.534-3.87 1.031-.985 2.408-1.477 4.129-1.477 1.61 0 2.883.425 3.819 1.274.936.842 1.404 1.965 1.404 3.37 0 1.707-1.087 3.739-3.26 6.097l-4.64 5.037h8.697v1.799z" fill="#000"/><path fill-rule="evenodd" clip-rule="evenodd" d="M1003.4 351.39c0 1.961-.45 3.541-1.34 4.739-.9 1.199-2.112 1.799-3.642 1.799-1.563 0-2.792-.497-3.688-1.489v6.204h-2.201v-17.838h2.01l.107 1.429c.896-1.112 2.142-1.667 3.736-1.667 1.547 0 2.768.583 3.668 1.75.9 1.167 1.35 2.791 1.35 4.871v.202zm-2.2-.25c0-1.453-.31-2.6-.93-3.442-.615-.841-1.464-1.262-2.542-1.262-1.333 0-2.332.592-2.998 1.774v6.157c.658 1.175 1.665 1.762 3.021 1.762 1.055 0 1.892-.416 2.509-1.25.63-.841.94-2.088.94-3.739zM1005.63 351.128c0-1.262.24-2.398.73-3.406.5-1.008 1.19-1.786 2.08-2.334.88-.548 1.89-.821 3.03-.821 1.75 0 3.17.607 4.25 1.822 1.08 1.214 1.63 2.83 1.63 4.846v.155c0 1.254-.25 2.382-.73 3.382-.48.992-1.16 1.766-2.06 2.322-.89.556-1.91.834-3.07.834-1.74 0-3.16-.608-4.24-1.822-1.08-1.215-1.62-2.823-1.62-4.823v-.155zm2.21.262c0 1.429.33 2.576.99 3.441.66.866 1.55 1.298 2.66 1.298 1.12 0 2.01-.436 2.67-1.309.66-.882.99-2.112.99-3.692 0-1.413-.34-2.556-1.02-3.43-.66-.881-1.55-1.321-2.66-1.321-1.09 0-1.96.432-2.63 1.298-.67.865-1 2.103-1 3.715z" fill="#000"/><path d="M1027.6 354.272c0-.596-.22-1.056-.68-1.382-.44-.333-1.22-.619-2.34-.857-1.11-.238-2-.524-2.65-.857-.65-.334-1.14-.731-1.45-1.191-.31-.461-.47-1.008-.47-1.644 0-1.055.45-1.949 1.33-2.679.9-.73 2.04-1.095 3.43-1.095 1.46 0 2.64.377 3.55 1.131.91.754 1.36 1.719 1.36 2.894h-2.21c0-.604-.26-1.124-.77-1.56-.51-.437-1.15-.655-1.93-.655-.8 0-1.43.174-1.88.524-.45.349-.68.805-.68 1.369 0 .532.21.933.63 1.203.42.27 1.18.528 2.27.774 1.11.246 2 .54 2.68.881.68.341 1.19.754 1.51 1.238.34.477.5 1.06.5 1.751 0 1.151-.46 2.076-1.38 2.775-.92.69-2.11 1.036-3.58 1.036-1.03 0-1.94-.183-2.74-.548-.79-.365-1.41-.874-1.86-1.524a3.703 3.703 0 0 1-.67-2.132h2.2c.04.738.33 1.326.88 1.762.56.429 1.29.643 2.19.643.83 0 1.5-.166 2-.5.51-.341.76-.794.76-1.357zM1035.66 341.685v3.12h2.4v1.703h-2.4v7.99c0 .516.1.905.32 1.167.21.254.58.381 1.09.381.26 0 .6-.048 1.05-.143v1.786c-.58.159-1.14.239-1.69.239-.98 0-1.73-.298-2.23-.894-.5-.595-.75-1.44-.75-2.536v-7.99h-2.34v-1.703h2.34v-3.12h2.21zM1049.66 347.948h1.65c1.04-.015 1.86-.289 2.45-.821.6-.532.9-1.251.9-2.156 0-2.032-1.02-3.048-3.04-3.048-.95 0-1.71.274-2.28.822-.57.539-.85 1.258-.85 2.155h-2.2c0-1.373.5-2.513 1.5-3.418 1.01-.913 2.29-1.369 3.83-1.369 1.64 0 2.92.433 3.84 1.298.93.865 1.4 2.068 1.4 3.608 0 .754-.25 1.485-.74 2.191-.48.707-1.15 1.235-1.99 1.584.95.302 1.69.802 2.2 1.5.53.699.79 1.552.79 2.561 0 1.556-.51 2.79-1.52 3.703-1.02.913-2.34 1.37-3.97 1.37-1.62 0-2.95-.441-3.97-1.322s-1.52-2.045-1.52-3.489h2.21c0 .913.3 1.643.89 2.191.6.548 1.39.821 2.39.821 1.07 0 1.88-.277 2.44-.833.57-.556.85-1.354.85-2.394 0-1.008-.31-1.782-.93-2.322-.62-.54-1.51-.817-2.68-.833h-1.65v-1.799z" fill="#000"/><path fill-rule="evenodd" clip-rule="evenodd" d="M428.426 0v81.293h164.511l-199.71 71.25.682 1.914H223.35v81.293h164.03l-217.453 71.232.631 1.932H0v81.293h343.147v-81.293H170.558l223.351-73.164-.682 1.914 199.71 71.25H428.426v81.293h343.148v-81.293H598.985L393.909 235.75h172.588v-81.293H393.909l205.076-73.164-.682 1.914 199.711 71.25H633.503v81.293h170.558l-.632 1.931 217.451 71.233H856.853v81.293H1200v-81.293h-172.59L804.061 235.75H976.65v-81.293H804.061L598.985 81.293h172.589V0H428.426zm341.117 2.032H430.457v77.229h339.086V2.032zM225.381 156.49h339.086v77.228H225.381v-77.228zM2.031 310.946h339.086v77.228H2.03v-77.228zm428.426 0h339.086v77.228H430.457v-77.228zm205.076-154.457h339.086v77.228H635.533v-77.228zm223.35 154.457h339.087v77.228H858.883v-77.228z" fill="#000"/></svg>